<?xml version="1.0" encoding="UTF-8"?>
<svg id="Ebene_2" data-name="Ebene 2" xmlns="http://www.w3.org/2000/svg" viewBox="0 0 162.22 128.63">
  <defs>
    <style>
      .cls-1 {
        fill: #fff;
      }
    </style>
  </defs>
  <g id="Ebene_1-2" data-name="Ebene 1-2">
    <path class="cls-1" d="M106.4,25.52l24.25,3.7c4.36-.48,3.43-5.9,7.08-6.68,2.93-.56,17.83,1.12,20.7,2.18,5.12,1.91,5.38,14.2-1.24,16.26-6.83,2.12-24.27-.23-25.58-9.54l-17.13-.84c.36,5.31-5.68,7.45-7.5,10.89-1.03,1.95-1.01,4.69-2.06,6.89-3.55,7.47-10.86,10.22-15.42,16.89,5.01.08,30.39,6.76,31.69,10.62.53,1.84.09,3.57-.3,5.36-2.16,10.04-11.57,13.24-15.21,22.58-5.31,13.64,9.7,9.81,8.68,14.63-1.21,5.68-17.88,2.71-21.73.37-2.23-6.59,2.62-8.54,4.61-12.51,3.1-6.2,1.88-15.82,7.17-21.66l-6.31-.55c-.98.57-.65,4.24-1.76,6.41-2.02,3.96-8.8,7.97-12.33,14.52-5.74,10.65-6.35,13.54,6.35,18.03l-.29,3.93c-3.99,2.93-18.67,1.72-20.97-2.05-2.97-4.88,2.98-9.72,4.55-13.37,2.04-4.77,2.02-11.27,3.62-16.27,1.36-4.26,4.21-7,5.27-11.13-10.49.89-24.5-2.79-24.91-15.45s13.91-11.57,17.94-21.85c-4.27-1.25-14.66,7.59-16.71.79-2.44-8.07,10.4-13.81,8.77-22.16l-37.22-5c-1.85,3.02-4.37,6.42-8.27,6.77-2.5.22-15.74-1.57-17.73-2.71-6.03-3.45-6.13-14.1,1.27-15.75,4.2-.94,17.7-.32,21.17,2.28,2.5,1.86,2.09,5.69,3.73,6.46,10.79,1.05,21.73,3.36,32.55,4.02,5.92.36,4.47-1.29,9.01-2.98,2.65.2,3.71,3.85,6.18,4.7,3.63,1.24,15.98,2.73,15.17-3.74l-6.95,1.98C87.76,13.93,80.17-.41,92.83,0c14.69.49,22.1,13.25,13.58,25.5h-.01Z"/>
  </g>
</svg>