<?xml version="1.0" encoding="UTF-8"?>
<svg id="Ebene_2" data-name="Ebene 2" xmlns="http://www.w3.org/2000/svg" viewBox="0 0 233.87 277.07">
  <defs>
    <style>
      .cls-1 {
        fill: #fff;
        stroke: #1d1d1b;
        stroke-miterlimit: 10;
        stroke-width: 3px;
      }
    </style>
  </defs>
  <g id="Ebene_1-2" data-name="Ebene 1">
    <path class="cls-1" d="M201.6,61.22c-2.84-1.81-2.66-.43-4.19-.23-3.86.52-2.72,1.04-5.3,2.03-3.04,1.16-6.08-1.51-7.59-4.01-.86-1.43-1-4.05-1.6-4.38-.83-.47-16.97-2.85-18.87-2.9-1.76-.05-4.47.22-5.77,1.5-2.67,5.07-6.06,9.99-9.54,14.51-1.82,2.37-4.84,4.23-6.3,6.82-.93,1.65-9.81,25.04-10.01,26.44-.53,3.78,1.2,8.59.69,13.07-.31,2.79-2.15,5.48-2.2,8s1.52,5.99,1.48,8.72c-.12,9.71-6.45,19.97-14.6,24.97l-1.47,11.37c35.26,36.9-29.25,77.59-47.7,30.37l-1.82-8.73-2.92,43.72,6.56-.37c1.35.82,3.99,8.91,5.81,10.95,1.82,2.03,12.54,8.07,15.27,8.78,2.59.67,6.66.38,8.99,1.22,1.27.46,5.97,8.83,5.63,9.29l-9.47,2.21,3.62,6.93c-.15,2.07-12.72,3.84-14.93,3.99-9.63.66-19.49-1.53-29.15-2.17-4.06-.27-25.81,1.56-25.72-4.6.02-1.73,2.14-4.33,2.6-6.14.7-2.72.36-5.58,1.6-8.6,1.05-2.55,3.27-3.65,3.8-5,.82-2.08,1.93-14.49,2.08-17.53.42-8.16.81-21.98-.11-29.83-.57-4.87-3.47-10.19-4.54-15.13-1.59-7.32-1.87-18.96-1.2-26.47.71-7.94,4.41-10.29,1.47-18.99-3.1-9.18-4.68-5.1-12.01-6.21-5.63-.86-5.43-4.95-6.62-9.42-4.53-17.08-8.38-36.38-11.79-53.8C2.11,52.58-4.59,31.06,13.67,17.2c18.71-14.21,47.17-2.8,67.55.09,20.95,2.97,33.58-8.82,55.2-7.1,17.41,1.38,24.59,17.13,41.36,18.28,2.45-4.12,3.01-8.43,5.5-12.91,7.23-13.03,23.48-18.7,36.07-9.59,9.25,6.7,14.17,15.47,12.8,27.12-.97,8.31-5,9.3-10.14,14.63-.93.97-2.08,3.29-2.88,3.67-1.61.76-3.68-.12-5.11.72-1.68.98-3.59,7.08-5.08,8.78-2.85,1.84-5.33-6.55-7.32.32ZM117.08,77.98c-15.48-2.19-30.84-5.84-46.64-5.1l5.84,42.99c7.95-12.11,21.46-17.99,35.7-13.85l5.1-24.04ZM73.36,126.81c-.95-.2-1.84.3-2.11,1.22-.34,1.17.99,7.77.59,10.74-.55,4.04-3.14,8.67-3.58,13.19-.69,7.08.29,15.33.02,22.61-.1,2.9-1.35,5.96-.75,9.08l2.63-7.2c4.89-10.15,15.23-16.71,26.51-16.85l-10.44-4.48c-9.12-6.61-14.18-16.84-12.87-28.3Z"/>
  </g>
</svg>