<?xml version="1.0" encoding="UTF-8"?>
<svg id="Ebene_2" data-name="Ebene 2" xmlns="http://www.w3.org/2000/svg" viewBox="0 0 162.32 170.2">
  <g id="Ebene_1-2" data-name="Ebene 1">
    <path d="M106.51,25.26l26.85,3.99c-.1-5.17,4.07-8.39,9.2-7.78,2.24.27,4.44,2.18,6.46,2.57,7.25,1.4,14.63-2.06,13.11,9.59-1.47,11.28-9.27,6.81-16.42,5.66-3.95-.63-8.25,1.11-11.37-2.56-.9-1.06-.93-2.94-1.98-3.99-2.37-2.38-14.29-1.68-18.32-2.56-1.21,4.99-3.65,11.15-9.52,12.02,3.6,6.78-1.04,10.01-3.17,15.21-5.44,13.3,2.98,42.4,1.19,58.9-.4,3.7-2.44,7.29-2.88,11.05-1.71,14.37,2.56,25.74,14.73,33.7-3.8,6.98-14.49,3.75-20.8,1.52,8.11,11.12-16.87,8.2-19.4,2.98-1.65-3.4.91-8.9.42-13.35s-3.47-9.99-3.89-15.02c-.73-8.64,2.42-16.5,3.01-24.83.96-13.59-2.71-28.1,1.67-41.11,1.42-4.22,4.6-7.19,5.16-11.75.68-5.51-1.66-10.79-.91-16.33-5.53,2.42-16.4,12.35-20.77,4.31-3.72-6.84,11.1-14.84,7.85-23.22l-37.65-2.83c-2.51,9.12-9.65,4.85-15.64,3.9-4.34-.68-9.44,1.32-12.24-3.67-1.95-3.48-1.77-11.83,2.57-13.13,2.99-.89,18.95.24,21.96,1.46,2.78,1.13,2.04,6.53,8.92,8.06,3.85.85,29.05,4.18,31.64,3.8,1.47-.22,3.03-3.61,5.76-3.36,2.54.23,4.11,3.59,6.38,4.51,4.4,1.78,12.66,2.21,15.16-2.72l-7.95.98c-.65-2.24,1.83-3.72,1.92-5.44.16-3.13-5.98-14,1.58-15.42,16.1-3.02,25.88,10.77,17.38,24.84ZM92.58,161.58l-4.47-54.72c-5.81,12.31-11.24,42.73,0,52.73,1.18,1.05,2.81,2.16,4.47,1.98Z"/>
  </g>
</svg>