<?xml version="1.0" encoding="UTF-8"?>
<svg id="Ebene_2" data-name="Ebene 2" xmlns="http://www.w3.org/2000/svg" viewBox="0 0 102.87 440.3">
  <defs>
    <style>
      .cls-1 {
        fill: #fff;
        stroke: #1d1d1b;
        stroke-miterlimit: 10;
        stroke-width: 3px;
      }
    </style>
  </defs>
  <g id="Ebene_1-2" data-name="Ebene 1">
    <path class="cls-1" d="M91.17,46.61h-2.19c1.41,2.02.08,3.54,0,5.47-.04,1.12.76,2.25.6,3.49-.47,3.71-10,5.64-12.62,2.72l-.72.72c-1.07,5.7-7.84,16.21-4.78,21.53l11.26,11.33c15.92,16.73,1.87,38.33-4.13,56.2-.83,2.46-3.64,10.52-3.44,12.52.28,2.81,3.43,6.89,4.04,9.86.54,2.62-.08,5.22.5,7.52.52,2.09,3.8,6.19,4.72,9.12,1.95,6.18,1.96,12.36,0,18.54-.72,2.27-4.47,7.91-4.58,8.94-.28,2.53,2.93,7.65,1.83,10.86,34.76,13.46,20.03,64.43-16.71,56.56.47,6.22-1.47,7.91-6.44,10.63,1.68,6.36,2.6,15.02.04,21.23-5.27,12.76-3.19,14.42-3.04,27.5.2,18.56-.63,36.92-.82,55.44,2.01,1.05,4.1,7.15,4.59,7.47.68.44,2.03-.1,3.13.87.82.72,1.74,4.05,2.66,5.36,1.79,2.54,9.99,7.47,12.99,8.14,2.8.63,5.29-.07,7.64.37,3.18.6,2.57,3.88,3.98,5.5.96,1.1,2.73.99,4.04,2.52.5.59,4.01,7.12,3.93,7.54-.49,2.63-12.31,3.97-14.81,4.14-9.66.63-19.44-1.69-29.15-2.25-8.13-.47-16.67,1.46-24.26-2.33l-.18-4.92c-2.03.14-6.25-1.01-6.6-3.3-.11-.74,3.12-12.96,3.65-14.59.92-2.83,3.43-4.74,3.56-5.16,1.72-5.46,1.22-26.77.87-33.46-1.1-21.17-12.83-36.81-8.59-59.54,1.27-6.78,4.49-11.81,1.9-19.4-3.21-.79-7.54-1.04-9.04-4.47-.35-.8-.08-2.16-.49-2.75-.59-.86-4.6-1.08-5.51-3.6l-6.71-67.61c.53-6.72-1.1-14.66-.71-21.09.21-3.44,11.86-24.76,14.16-30.3,2.4-5.77,5.01-12.25,6.45-18.32,4.88-20.6-6.07-38.76,5.31-59.55,6.68-12.21,21.94-16.39,23.46-31.99.43-4.37-2.85-4.1-5.66-7.1C28.42,28.94,38.54,2.91,63.21,1.52c6.61-.37,18.73,3.94,21.57,10.31.56,1.26,4.84,12.64,4.94,13.34.3,2.2-1.47,3.38-1.01,5.26.67,2.69,4.8,5.65,5.25,7.22,1.05,3.63-2.81,2.57-4.21,5.04l1.41,3.92Z"/>
  </g>
</svg>